<svg width="101" height="100" viewBox="0 0 101 100" fill="none" xmlns="http://www.w3.org/2000/svg">
<path d="M48.0329 19.9318C43.3186 19.9318 39.49 23.7747 39.49 28.489C39.49 33.189 43.3186 37.0176 48.0329 37.0176C52.7328 37.0176 56.5614 33.189 56.5614 28.489C56.5614 23.7747 52.7328 19.9318 48.0329 19.9318ZM48.0329 34.8747C44.5044 34.8747 41.6329 32.0033 41.6329 28.489C41.6329 24.9461 44.5044 22.0747 48.0329 22.0747C51.5472 22.0747 54.4186 24.9461 54.4186 28.489C54.4186 32.0033 51.5472 34.8747 48.0329 34.8747Z" fill="#1D2939"/>
<path d="M35.4043 76.0175C35.4043 76.6175 34.9187 77.0888 34.3329 77.0888H32.8329C32.2329 77.0888 31.7615 76.6175 31.7615 76.0175C31.7615 75.4315 32.2329 74.9462 32.8329 74.9462H34.3329C34.9187 74.9462 35.4043 75.4315 35.4043 76.0175Z" fill="#1D2939"/>
<path d="M93.5476 70.2735H83.9903V45.5595H87.3756C90.4903 45.5595 91.9329 41.7023 89.6043 39.6595L50.233 5.11662C48.9617 4.00238 47.0616 4.00238 45.7902 5.11662L29.1902 19.7024V15.2595H30.7616C31.7188 15.2595 32.4902 14.4881 32.4902 13.5452V8.35953C32.4902 7.4166 31.7188 6.64521 30.7616 6.64521H13.4473C12.4902 6.64521 11.7188 7.4166 11.7188 8.35953V13.5452C11.7188 14.4881 12.4902 15.2595 13.4473 15.2595H15.0331V32.1309L6.44736 39.6595C4.11877 41.7166 5.57594 45.5595 8.67594 45.5595H12.0617V93.5741H8.30448C7.71881 93.5741 7.23308 94.0455 7.23308 94.6455C7.23308 95.2308 7.71881 95.7168 8.30448 95.7168H8.39021H93.5476C94.9189 95.7168 96.0329 94.5881 96.0329 93.2168V72.7595C96.0329 71.3881 94.9189 70.2735 93.5476 70.2735ZM13.8617 13.1167V8.78806H30.3473V13.1167H13.8617ZM27.0473 15.2595V21.5738L17.1759 30.2452V15.2595H27.0473ZM8.67594 43.4166C7.54728 43.4166 7.01874 42.0167 7.86161 41.2737L47.2045 6.73093C47.6616 6.33095 48.3616 6.33095 48.8187 6.73093L88.1903 41.2737C89.0329 42.0167 88.5189 43.4166 87.3756 43.4166H8.67594ZM26.033 60.1738V93.5741H14.2045V45.5595H81.8476V70.2735H52.8473V60.1738C52.8473 58.0595 51.1187 56.3309 49.0045 56.3309H29.8902C27.7616 56.3309 26.033 58.0595 26.033 60.1738ZM50.7045 70.3021C49.5045 70.4735 48.5616 71.5455 48.5616 72.7595C48.5759 81.2595 48.533 93.1455 48.5902 93.5741H28.1759V60.1738C28.1759 59.2452 28.9473 58.4738 29.8901 58.4738H49.0045C49.9331 58.4738 50.7045 59.2452 50.7045 60.1738V70.3021ZM93.8903 93.2168C93.8903 93.4168 93.7329 93.5741 93.5476 93.5741H51.0473C50.9473 93.5741 50.7187 93.4168 50.7187 93.2308V72.7595C50.7187 72.5741 50.9045 72.4168 51.0473 72.4168C51.8759 72.4308 82.0756 72.4168 93.5476 72.4168C93.7329 72.4168 93.8903 72.5741 93.8903 72.7595V93.2168Z" fill="#1D2939"/>
<path d="M49.0044 58.4753H29.8901C28.9473 58.4753 28.1758 59.2467 28.1758 60.1753V93.5756H48.5901C48.5329 93.147 48.5759 81.2609 48.5615 72.7609C48.5615 71.5469 49.5045 70.4749 50.7044 70.3036V60.1753C50.7044 59.2467 49.933 58.4753 49.0044 58.4753ZM34.3329 77.0896H32.8329C32.233 77.0896 31.7615 76.6183 31.7615 76.0183C31.7615 75.4323 32.233 74.9469 32.8329 74.9469H34.3329C34.9187 74.9469 35.4044 75.4323 35.4044 76.0183C35.4044 76.6183 34.9187 77.0896 34.3329 77.0896Z" fill="url(#paint0_linear_7042_5402)"/>
<path d="M13.861 8.78906H30.3468V13.1176H13.861V8.78906Z" fill="url(#paint1_linear_7042_5402)"/>
<path d="M27.0472 15.2604V21.5747L17.1758 30.2462V15.2604H27.0472Z" fill="url(#paint2_linear_7042_5402)"/>
<path d="M54.4185 28.4898C54.4185 32.0041 51.5471 34.8756 48.0328 34.8756C44.5042 34.8756 41.6328 32.0041 41.6328 28.4898C41.6328 24.947 44.5042 22.0755 48.0328 22.0755C51.5471 22.0755 54.4185 24.947 54.4185 28.4898Z" fill="#DDDDDD"/>
<path d="M59.5612 79.2031C57.4754 79.2031 55.7754 80.9031 55.7754 82.9891C55.7754 85.0891 57.4754 86.7891 59.5612 86.7891C61.6612 86.7891 63.3468 85.0891 63.3468 82.9891C63.3468 80.9031 61.6612 79.2031 59.5612 79.2031ZM59.5612 84.6465C58.6612 84.6465 57.9183 83.9031 57.9183 82.9891C57.9183 82.0891 58.6612 81.3465 59.5612 81.3465C60.4755 81.3465 61.204 82.0891 61.204 82.9891C61.204 83.9031 60.4755 84.6465 59.5612 84.6465Z" fill="#12B76A"/>
<path d="M61.2043 82.9893C61.2043 83.9033 60.4759 84.6467 59.5615 84.6467C58.6615 84.6467 57.9187 83.9033 57.9187 82.9893C57.9187 82.0893 58.6615 81.3467 59.5615 81.3467C60.4759 81.3467 61.2043 82.0893 61.2043 82.9893Z" fill="white"/>
<path d="M85.0328 79.2031C82.9474 79.2031 81.2474 80.9031 81.2474 82.9891C81.2474 85.0891 82.9474 86.7891 85.0328 86.7891C87.1188 86.7891 88.8188 85.0891 88.8188 82.9891C88.8188 80.9031 87.1188 79.2031 85.0328 79.2031ZM85.0328 84.6465C84.1188 84.6465 83.3901 83.9031 83.3901 82.9891C83.3901 82.0891 84.1188 81.3465 85.0328 81.3465C85.9474 81.3465 86.6754 82.0891 86.6754 82.9891C86.6754 83.9031 85.9474 84.6465 85.0328 84.6465Z" fill="#12B76A"/>
<path d="M86.6753 82.9893C86.6753 83.9033 85.9474 84.6467 85.0327 84.6467C84.1187 84.6467 83.39 83.9033 83.39 82.9893C83.39 82.0893 84.1187 81.3467 85.0327 81.3467C85.9474 81.3467 86.6753 82.0893 86.6753 82.9893Z" fill="white"/>
<path d="M72.2988 78.0266C73.3735 78.0266 74.2481 78.8999 74.2481 79.9746C74.2481 80.5659 74.7281 81.0459 75.3195 81.0459C75.9108 81.0459 76.3908 80.5659 76.3908 79.9746C76.3908 78.0919 75.1048 76.5186 73.3708 76.0446V75.2493C73.3708 74.6579 72.8908 74.1779 72.2988 74.1779C71.7075 74.1779 71.2275 74.6579 71.2275 75.2493V76.0446C69.4935 76.5186 68.2075 78.0919 68.2075 79.9746C68.2075 82.2306 70.0435 84.0659 72.2988 84.0659C73.3735 84.0659 74.2481 84.9406 74.2481 86.0153C74.2481 87.0893 73.3735 87.9626 72.2988 87.9626C71.2248 87.9626 70.3501 87.0893 70.3501 86.0153C70.3501 85.4239 69.8701 84.9439 69.2788 84.9439C68.6875 84.9439 68.2075 85.4239 68.2075 86.0153C68.2075 87.8979 69.4935 89.4713 71.2275 89.9453V90.7406C71.2275 91.3319 71.7075 91.8119 72.2988 91.8119C72.8908 91.8119 73.3708 91.3319 73.3708 90.7406V89.9453C75.1048 89.4713 76.3908 87.8979 76.3908 86.0153C76.3908 83.7593 74.5548 81.9233 72.2988 81.9233C71.2248 81.9233 70.3501 81.0486 70.3501 79.9746C70.3501 78.8999 71.2248 78.0266 72.2988 78.0266Z" fill="#1CAD6C"/>
<defs>
<linearGradient id="paint0_linear_7042_5402" x1="39.4401" y1="58.4753" x2="39.4401" y2="93.5756" gradientUnits="userSpaceOnUse">
<stop stop-color="#DDDDDD" stop-opacity="0"/>
<stop offset="1" stop-color="#DDDDDD"/>
</linearGradient>
<linearGradient id="paint1_linear_7042_5402" x1="22.1039" y1="8.78906" x2="22.1039" y2="13.1176" gradientUnits="userSpaceOnUse">
<stop stop-color="#DDDDDD" stop-opacity="0"/>
<stop offset="1" stop-color="#DDDDDD"/>
</linearGradient>
<linearGradient id="paint2_linear_7042_5402" x1="22.1115" y1="15.2604" x2="22.1115" y2="30.2462" gradientUnits="userSpaceOnUse">
<stop stop-color="#DDDDDD" stop-opacity="0"/>
<stop offset="1" stop-color="#DDDDDD"/>
</linearGradient>
</defs>
</svg>
