<svg width="34" height="33" viewBox="0 0 34 33" fill="none" xmlns="http://www.w3.org/2000/svg">
<path d="M33.0147 20.0869L30.301 10.6249L30.5608 10.7244C30.8427 10.8294 31.1632 10.6912 31.2738 10.4038L32.0641 8.33675C32.0904 8.26854 32.103 8.1958 32.1011 8.12271C32.0993 8.04963 32.083 7.97763 32.0532 7.91087C32.0234 7.8441 31.9807 7.78388 31.9276 7.73366C31.8744 7.68344 31.8119 7.64422 31.7436 7.61825L23.2045 4.36845C22.5634 2.74355 21.2812 1.47236 19.6286 0.869935C18.877 0.59448 18.0783 0.470726 17.2786 0.505826C16.4789 0.540926 15.694 0.734184 14.9695 1.07443C14.3601 1.36101 13.8018 1.74563 13.3169 2.21297C11.2223 1.57185 9.00045 1.71555 6.99972 2.64406C4.86082 3.64443 3.23591 5.41303 2.42899 7.63483C1.1965 11.0173 2.15817 14.8198 4.82213 17.2184L3.95994 19.595C3.90992 19.7317 3.91588 19.8827 3.97652 20.015L4.40209 20.9325L3.48462 21.3581C3.20828 21.4852 3.08669 21.8168 3.21933 22.0931L3.6449 23.0106L2.72744 23.4362C2.4511 23.5633 2.32951 23.8949 2.46215 24.1712L2.88772 25.0887L1.97026 25.5143C1.83761 25.5751 1.7326 25.6856 1.68286 25.8238L1.00306 27.6974C0.958841 27.819 0.958841 27.9516 1.00306 28.0732L2.46768 32.1355C2.4947 32.2118 2.5383 32.2811 2.59536 32.3385C2.65241 32.3959 2.72149 32.44 2.79762 32.4675C2.87374 32.495 2.95502 32.5052 3.03559 32.4975C3.11616 32.4898 3.19402 32.4643 3.26355 32.4229L6.99419 30.2508C7.10473 30.1845 7.19316 30.085 7.23737 29.9634L11.0509 19.4845C13.3456 19.3996 15.5175 18.4266 17.1084 16.7708L19.192 24.0331C19.2307 24.1712 19.3247 24.2928 19.4573 24.3647C19.5402 24.4089 19.6342 24.4365 19.7226 24.4365C19.7723 24.4365 19.8276 24.431 19.8773 24.4144L32.6279 20.7556C32.9208 20.6727 33.0921 20.3632 33.0092 20.0703L33.0147 20.0869ZM30.4392 9.49739L21.9168 6.25311C21.6902 6.16468 21.4304 6.24206 21.2812 6.4355L19.402 8.9226C19.3081 8.46939 19.1865 8.02171 19.0262 7.59062L20.8998 5.10905C21.049 4.91561 21.3143 4.83823 21.5409 4.92666L30.8371 8.46386L30.4392 9.49739ZM15.4448 2.08585C16.0376 1.80646 16.6801 1.64791 17.3349 1.61944C17.9896 1.59097 18.6435 1.69316 19.2583 1.92004C20.2447 2.28144 21.0918 2.94484 21.6791 3.81576C21.0656 3.68864 20.4135 3.9263 20.021 4.4403L18.5012 6.44655C17.6224 4.83823 16.2517 3.48967 14.4997 2.6717C14.7926 2.44509 15.1076 2.24613 15.4503 2.09137L15.4448 2.08585ZM11.7915 5.51251C11.9407 5.44066 12.101 5.4075 12.2558 5.4075C12.4334 5.40757 12.6084 5.45029 12.7661 5.53208C12.9237 5.61386 13.0595 5.73231 13.1618 5.87746C13.2642 6.02261 13.3302 6.19023 13.3543 6.3662C13.3784 6.54218 13.3599 6.72137 13.3004 6.8887C13.1997 7.16356 12.9946 7.38751 12.7295 7.51174C12.4645 7.63597 12.1611 7.65042 11.8855 7.55193C11.6106 7.4513 11.3867 7.24612 11.2624 6.98109C11.1382 6.71607 11.1238 6.41268 11.2223 6.13705C11.3217 5.8607 11.5262 5.63963 11.7915 5.51251ZM10.6751 18.4012C10.4374 18.4122 10.2329 18.5449 10.15 18.766L6.27017 29.4163L3.28566 31.1517L2.11396 27.9019L2.65007 26.4317L3.86045 25.868C4.1368 25.7409 4.25839 25.4093 4.12574 25.1329L3.70017 24.2155L4.61763 23.7899C4.89398 23.6628 5.01557 23.3312 4.88292 23.0548L4.45735 22.1374L5.37482 21.7118C5.65116 21.5847 5.77275 21.2531 5.64011 20.9767L5.07636 19.7663L5.99383 17.2461C6.07673 17.025 6.00488 16.7818 5.82802 16.6326C3.30224 14.549 2.35714 11.0891 3.47357 8.02171C4.83318 4.29107 8.77385 2.2406 12.5432 3.14701C12.2889 3.51731 12.0734 3.91524 11.9076 4.34081C11.7086 4.37398 11.5152 4.42372 11.3273 4.51215C10.7912 4.76086 10.3877 5.20301 10.1832 5.76122C9.97871 6.31391 10.0063 6.91634 10.2551 7.45245C10.5038 7.98855 10.9459 8.39201 11.5041 8.59651C11.7528 8.68494 12.0071 8.72915 12.2558 8.72915C13.1567 8.72915 14.0078 8.17094 14.3339 7.27559C14.7429 6.14258 14.1681 4.8935 13.0517 4.4624C13.2119 4.11974 13.4164 3.80471 13.6486 3.51178C15.4669 4.24686 16.926 5.61752 17.7606 7.40823C18.6338 9.28184 18.7278 11.3821 18.0203 13.3275C16.9039 16.3949 13.9691 18.4233 10.6806 18.4122L10.6751 18.4012ZM23.8291 22.1484L21.9997 15.7704L26.2498 14.549L28.0792 20.927L23.8291 22.1484ZM29.1404 20.623L27.1618 13.7144C27.142 13.6442 27.1083 13.5786 27.0628 13.5217C27.0172 13.4647 26.9606 13.4175 26.8965 13.3828C26.7694 13.3109 26.6201 13.2944 26.4764 13.333L21.1651 14.8585C20.8722 14.9414 20.7009 15.2509 20.7838 15.5438L22.7624 22.4524L20.1039 23.2151L17.965 15.7538C18.4072 15.1293 18.7775 14.4384 19.0483 13.6923C19.4297 12.6422 19.5899 11.5644 19.5734 10.5088L21.9057 7.42481L29.0022 10.1275L31.7933 19.8548L29.1349 20.6175L29.1404 20.623Z" fill="#039654"/>
</svg>
