<svg width="32" height="33" viewBox="0 0 32 33" fill="none" xmlns="http://www.w3.org/2000/svg">
<path d="M28.7959 10.7811V4.7513C28.7959 4.4684 28.6836 4.19709 28.4835 3.99706C28.2835 3.79702 28.0122 3.68464 27.7293 3.68464H25.0626C24.7797 3.68464 24.5084 3.79702 24.3084 3.99706C24.1084 4.19709 23.996 4.4684 23.996 4.7513V6.79928L16.6819 0.731599C16.489 0.571811 16.2463 0.484375 15.9958 0.484375C15.7453 0.484375 15.5026 0.571811 15.3097 0.731599L0.384999 13.1139C0.274155 13.2058 0.182917 13.3191 0.116705 13.447C0.0504927 13.5748 0.0106563 13.7147 -0.000437641 13.8583C-0.0115316 14.0019 0.00634303 14.1462 0.0521245 14.2827C0.097906 14.4193 0.170661 14.5452 0.266066 14.6531L1.59619 16.1539C1.98018 16.5912 2.64311 16.6424 3.08951 16.2685L3.19617 16.1768V31.4177C3.19617 31.7006 3.30855 31.9719 3.50859 32.172C3.70863 32.372 3.97994 32.4844 4.26283 32.4844H27.7293C28.0122 32.4844 28.2835 32.372 28.4835 32.172C28.6836 31.9719 28.7959 31.7006 28.7959 31.4177V16.1768L28.9063 16.2685C29.1205 16.4476 29.3961 16.5359 29.6745 16.5145C29.9528 16.493 30.2117 16.3636 30.3959 16.1539L31.7239 14.6531C31.8195 14.5453 31.8924 14.4194 31.9383 14.2829C31.9842 14.1464 32.0022 14.002 31.9911 13.8584C31.9801 13.7148 31.9403 13.5748 31.874 13.4469C31.8078 13.319 31.7164 13.2058 31.6055 13.1139L28.7959 10.7811ZM25.0626 4.7513H27.7293V9.89632L25.0626 7.6846V4.7513ZM27.7293 31.4177H4.26283V15.292L15.9961 5.55822L27.7293 15.292V31.4177ZM29.5986 15.4467C29.5971 15.4481 29.5951 15.449 29.593 15.449C29.5909 15.449 29.5889 15.4481 29.5874 15.4467L16.3369 4.45477C16.2411 4.37522 16.1205 4.33168 15.9961 4.33168C15.8716 4.33168 15.751 4.37522 15.6553 4.45477L2.39618 15.4467L1.06606 13.9347L16.0014 1.55133L30.9293 13.9459L29.5986 15.4467Z" fill="#039654"/>
<path d="M7.94599 21.0468L7.48306 23.6729C7.46183 23.8107 7.49539 23.9513 7.57656 24.0647C7.65773 24.178 7.78006 24.2551 7.91735 24.2793C8.05463 24.3036 8.19597 24.2731 8.31107 24.1945C8.42618 24.1158 8.50591 23.9952 8.53319 23.8585L8.81105 22.2825L9.53745 22.4105L10.1241 24.3806C10.1423 24.4497 10.1742 24.5145 10.2179 24.571C10.2616 24.6276 10.3162 24.6748 10.3785 24.7098C10.4408 24.7448 10.5095 24.7669 10.5805 24.7749C10.6516 24.7828 10.7234 24.7764 10.7919 24.7561C10.8604 24.7357 10.9241 24.7017 10.9793 24.6563C11.0344 24.6108 11.0798 24.5547 11.1128 24.4913C11.1459 24.4279 11.1658 24.3586 11.1715 24.2873C11.1772 24.2161 11.1685 24.1444 11.146 24.0766L10.6494 22.4078C10.987 22.2949 11.2773 22.0726 11.4743 21.7762C11.6714 21.4798 11.7639 21.1261 11.7374 20.7711C11.7108 20.4162 11.5666 20.0802 11.3277 19.8164C11.0887 19.5526 10.7686 19.376 10.418 19.3145L8.84199 19.0393C8.70281 19.0148 8.55961 19.0466 8.44381 19.1276C8.32802 19.2086 8.2491 19.3322 8.22439 19.4713L7.94653 21.0457L7.94599 21.0468ZM9.18225 20.1812L10.2324 20.3673C10.3691 20.3946 10.4897 20.4743 10.5684 20.5894C10.647 20.7045 10.6775 20.8459 10.6532 20.9832C10.6289 21.1205 10.5519 21.2428 10.4385 21.324C10.3252 21.4051 10.1846 21.4387 10.0468 21.4174L8.99665 21.2324L9.18225 20.1812ZM12.6425 25.1241L14.7433 25.4974C14.774 25.5031 14.8053 25.506 14.8366 25.5059C14.9724 25.5094 15.1044 25.4608 15.2057 25.3702C15.3069 25.2796 15.3698 25.1538 15.3814 25.0185C15.3931 24.8831 15.3526 24.7484 15.2683 24.6419C15.184 24.5353 15.0622 24.465 14.9278 24.4452L13.3518 24.1668L13.5374 23.1161L15.1129 23.394C15.1433 23.3993 15.1747 23.402 15.2057 23.402C15.337 23.3995 15.4628 23.3485 15.559 23.259C15.6551 23.1695 15.7148 23.0476 15.7266 22.9167C15.7385 22.7859 15.7016 22.6553 15.6231 22.55C15.5445 22.4446 15.4299 22.372 15.3011 22.346L13.7257 22.0681L13.9113 21.0174L15.4867 21.2948C15.5569 21.31 15.6293 21.3109 15.6998 21.2974C15.7703 21.2839 15.8373 21.2563 15.8969 21.2163C15.9565 21.1763 16.0074 21.1247 16.0465 21.0646C16.0857 21.0045 16.1123 20.9371 16.1248 20.8664C16.1373 20.7957 16.1354 20.7233 16.1193 20.6534C16.1031 20.5835 16.073 20.5175 16.0307 20.4595C15.9885 20.4015 15.935 20.3526 15.8734 20.3158C15.8118 20.279 15.7434 20.255 15.6723 20.2452L13.571 19.8719C13.4318 19.8474 13.2885 19.8792 13.1727 19.9603C13.0569 20.0414 12.978 20.1652 12.9534 20.3044L12.2078 24.5065C12.1957 24.5756 12.1974 24.6464 12.2127 24.7149C12.228 24.7833 12.2566 24.8481 12.297 24.9055C12.3374 24.9628 12.3887 25.0117 12.448 25.0492C12.5072 25.0867 12.5734 25.1122 12.6425 25.1241ZM16.8446 25.8659C16.9838 25.8904 17.1271 25.8586 17.2429 25.7775C17.3587 25.6964 17.4376 25.5726 17.4622 25.4334L17.811 23.4564L18.5272 25.8633C18.56 25.9734 18.6274 26.07 18.7194 26.1387C18.8115 26.2074 18.9233 26.2445 19.0382 26.2446H19.0691C19.1889 26.2375 19.3028 26.1903 19.3925 26.1104C19.4821 26.0306 19.5422 25.9228 19.563 25.8046L20.3037 21.5993C20.3179 21.5295 20.3179 21.4576 20.3039 21.3879C20.2898 21.3181 20.2619 21.2518 20.2218 21.193C20.1817 21.1342 20.1302 21.084 20.0705 21.0453C20.0107 21.0067 19.9437 20.9804 19.8736 20.9681C19.8035 20.9557 19.7316 20.9575 19.6622 20.9734C19.5928 20.9892 19.5273 21.0188 19.4695 21.0604C19.4118 21.102 19.3629 21.1547 19.3258 21.2155C19.2887 21.2763 19.2642 21.3438 19.2536 21.4142L18.9054 23.3913L18.1886 20.986C18.154 20.8712 18.0818 20.7713 17.9836 20.7026C17.8854 20.6339 17.7668 20.6003 17.6471 20.6072C17.5274 20.6141 17.4136 20.6611 17.3239 20.7407C17.2342 20.8202 17.1739 20.9277 17.1528 21.0457L16.4121 25.2473C16.3998 25.3163 16.4012 25.3871 16.4163 25.4555C16.4314 25.524 16.4599 25.5888 16.5 25.6463C16.5402 25.7038 16.5913 25.7527 16.6504 25.7904C16.7096 25.8281 16.7755 25.8538 16.8446 25.8659ZM21.2616 22.3118L22.3128 22.4969L21.6643 26.1737C21.6437 26.3112 21.6776 26.4514 21.7588 26.5643C21.8401 26.6771 21.9622 26.7538 22.0991 26.778C22.2361 26.8021 22.3771 26.7718 22.492 26.6935C22.607 26.6152 22.6867 26.495 22.7144 26.3587L23.3629 22.682L24.413 22.8676C24.5508 22.8888 24.6915 22.8552 24.8048 22.7741C24.9182 22.6929 24.9952 22.5706 25.0195 22.4333C25.0437 22.296 25.0133 22.1547 24.9346 22.0396C24.856 21.9244 24.7354 21.8447 24.5986 21.8174L21.4472 21.2617C21.3776 21.2478 21.3058 21.248 21.2362 21.2622C21.1666 21.2764 21.1006 21.3043 21.0419 21.3444C20.9833 21.3845 20.9333 21.4359 20.8947 21.4955C20.8562 21.5552 20.83 21.622 20.8177 21.6919C20.8053 21.7619 20.807 21.8336 20.8228 21.9028C20.8385 21.9721 20.8679 22.0375 20.9092 22.0952C20.9506 22.153 21.0031 22.2019 21.0636 22.2391C21.1241 22.2763 21.1914 22.301 21.2616 22.3118Z" fill="#039654"/>
<path d="M13.8633 11.1489C13.8655 11.6524 14.0473 12.1388 14.3759 12.5201L11.3711 16.7798L8.25645 16.2305C7.8387 16.157 7.40887 16.2524 7.06144 16.4957C6.71401 16.7391 6.47742 17.1104 6.40366 17.5281L5.10608 24.8816C5.03333 25.2994 5.12909 25.729 5.37238 26.0764C5.61568 26.4237 5.98669 26.6605 6.4042 26.7349L23.7374 29.7909C24.1551 29.8642 24.5849 29.7687 24.9322 29.5252C25.2795 29.2818 25.516 28.9105 25.5896 28.4928L26.8872 21.1392C26.9605 20.7215 26.865 20.2917 26.6216 19.9444C26.3781 19.5971 26.0068 19.3606 25.5891 19.287L21.9395 18.6433L17.6196 12.5196C17.9475 12.1381 18.1285 11.652 18.13 11.1489C18.13 10.5831 17.9052 10.0405 17.5051 9.64046C17.105 9.24038 16.5624 9.01563 15.9966 9.01562C15.4309 9.01563 14.8882 9.24038 14.4882 9.64046C14.0881 10.0405 13.8633 10.5831 13.8633 11.1489ZM25.748 20.5563C25.7884 20.6135 25.8171 20.6782 25.8323 20.7466C25.8475 20.815 25.8489 20.8858 25.8366 20.9547L24.5395 28.3082C24.5149 28.4475 24.436 28.5713 24.3202 28.6524C24.2044 28.7335 24.0612 28.7653 23.9219 28.7408L6.58873 25.6848C6.44992 25.6601 6.32655 25.5814 6.2456 25.466C6.16464 25.3505 6.13269 25.2077 6.15673 25.0688L7.45379 17.7153C7.47837 17.576 7.55724 17.4523 7.67305 17.3712C7.78886 17.2901 7.93213 17.2583 8.07138 17.2827L25.4046 20.3398C25.5432 20.3633 25.667 20.4411 25.748 20.5563ZM12.5321 16.983L15.2446 13.1372C15.7277 13.3285 16.2656 13.3285 16.7486 13.1372L20.4483 18.3787L12.5321 16.983ZM17.0633 11.1489C17.0633 11.4318 16.9509 11.7031 16.7509 11.9032C16.5508 12.1032 16.2795 12.2156 15.9966 12.2156C15.7137 12.2156 15.4424 12.1032 15.2424 11.9032C15.0424 11.7031 14.93 11.4318 14.93 11.1489C14.93 10.866 15.0424 10.5947 15.2424 10.3947C15.4424 10.1947 15.7137 10.0823 15.9966 10.0823C16.2795 10.0823 16.5508 10.1947 16.7509 10.3947C16.9509 10.5947 17.0633 10.866 17.0633 11.1489Z" fill="#039654"/>
</svg>
