<svg width="100" height="100" viewBox="0 0 100 100" fill="none" xmlns="http://www.w3.org/2000/svg">
<path d="M83.646 56.9105V45.5534H89.36C92.46 45.5534 93.9034 41.7105 91.5747 39.6676L52.2032 5.12481C50.9461 4.01048 49.0317 4.01048 47.7745 5.12481L31.1603 19.6962V15.2534H32.7461C33.6889 15.2534 34.4603 14.4962 34.4603 13.539V8.35329C34.4603 7.41049 33.6889 6.63909 32.7461 6.63909H15.4175C14.4746 6.63909 13.7032 7.41049 13.7032 8.35329V13.539C13.7032 14.4962 14.4746 15.2534 15.4175 15.2534H17.0032V32.1248L8.43175 39.6676C6.08889 41.7105 7.54601 45.5534 10.646 45.5534H16.3746V93.5678H13.3461C12.7603 93.5678 12.2746 94.0531 12.2746 94.6391C12.2746 95.2244 12.7603 95.7104 13.3461 95.7104H86.6607C87.26 95.7104 87.732 95.2244 87.732 94.6391C87.732 94.0531 87.26 93.5678 86.6607 93.5678H83.646V82.0678C88.8747 80.2818 92.66 75.3244 92.66 69.4818C92.66 63.6534 88.8747 58.6962 83.646 56.9105ZM15.846 13.1105V8.78195H32.3174V13.1105H15.846ZM29.0174 15.2676V21.5819L19.146 30.239V15.2676H29.0174ZM10.646 43.4105C9.51748 43.4105 8.98895 42.0104 9.83175 41.2676L49.1889 6.72482C49.4175 6.52479 49.7032 6.42478 49.9889 6.42478C50.2745 6.42478 50.5603 6.52479 50.7889 6.72482L90.16 41.2676C91.0034 42.0104 90.4887 43.4105 89.36 43.4105H10.646ZM81.5034 93.5678C55.5889 93.5678 57.1317 93.5678 18.5175 93.5678V45.5534H81.5034V56.3677C75.8173 55.4391 69.9173 58.3533 67.332 63.8391H51.0745V59.1105C51.0745 56.6105 49.0603 54.5962 46.5603 54.5962C44.0889 54.5962 42.0603 56.6248 42.0603 59.1105V79.8818C42.0603 82.3391 44.046 84.3964 46.5603 84.3964C49.0603 84.3964 51.0745 82.3678 51.0745 79.8818V75.1391H67.332C69.5887 79.9251 74.36 82.7964 79.36 82.7964C80.046 82.7964 80.932 82.7104 81.5034 82.6104V93.5678ZM66.5174 72.9964H44.2031V65.9819C44.2031 65.9819 46.8603 65.9962 66.5174 65.9819C65.9603 68.0531 65.8745 70.6104 66.5174 72.9964ZM48.9317 75.1391V79.8818C48.9317 81.1818 47.8745 82.2531 46.5603 82.2531C45.2745 82.2531 44.2031 81.1964 44.2031 79.8818V75.1391H48.9317ZM44.2031 63.8391V59.1105C44.2031 57.7962 45.2603 56.739 46.5603 56.739C47.8745 56.739 48.9317 57.8104 48.9317 59.1105V63.8391H44.2031ZM79.36 80.6531C76.46 80.6531 73.832 79.5244 71.832 77.7104C69.846 75.8964 68.5174 73.3818 68.246 70.6104C67.5887 64.0105 72.832 58.3391 79.36 58.3391C85.4747 58.3391 90.5174 63.3248 90.5174 69.4818C90.5174 75.7104 85.4174 80.6531 79.36 80.6531Z" fill="#1D2939"/>
<path d="M79.36 58.3394C72.832 58.3394 67.5887 64.0108 68.246 70.6107C68.5173 73.382 69.846 75.8967 71.832 77.7107C73.8313 79.5254 76.46 80.6534 79.36 80.6534C85.4173 80.6534 90.5173 75.7107 90.5173 69.482C90.5173 63.3251 85.4747 58.3394 79.36 58.3394ZM82.232 74.2534C79.6033 74.2534 77.4747 72.1107 77.4747 69.4967C77.4747 66.868 79.6033 64.725 82.232 64.725C84.86 64.725 87.0033 66.868 87.0033 69.4967C87.0033 72.1107 84.86 74.2534 82.232 74.2534Z" fill="url(#paint0_linear_7042_5417)"/>
<path d="M48.9317 59.111V63.8396H44.2031V59.111C44.2031 57.7968 45.2603 56.7396 46.5603 56.7396C47.8745 56.7396 48.9317 57.811 48.9317 59.111Z" fill="#DDDDDD"/>
<path d="M48.9317 75.1393V79.882C48.9317 81.182 47.8745 82.2533 46.5603 82.2533C45.2745 82.2533 44.2031 81.1967 44.2031 79.882V75.1393H48.9317Z" fill="#DDDDDD"/>
<path d="M15.8457 8.78253H32.3171V13.1111H15.8457V8.78253Z" fill="url(#paint1_linear_7042_5417)"/>
<path d="M29.0174 15.2682V21.5824L19.146 30.2397V15.2682H29.0174Z" fill="url(#paint2_linear_7042_5417)"/>
<path d="M50.0032 20.0254C45.346 20.0254 41.5461 23.8253 41.5461 28.4825C41.5461 33.1397 45.346 36.9253 50.0032 36.9253C54.6603 36.9253 58.4461 33.1397 58.4461 28.4825C58.4461 23.8253 54.6603 20.0254 50.0032 20.0254ZM50.0032 34.7825C46.5317 34.7825 43.6889 31.9539 43.6889 28.4825C43.6889 24.9968 46.5317 22.1683 50.0032 22.1683C53.4746 22.1683 56.3032 24.9968 56.3032 28.4825C56.3033 31.9539 53.4746 34.7825 50.0032 34.7825Z" fill="#1D2939"/>
<path d="M56.3032 28.4821C56.3032 31.9535 53.4745 34.7821 50.0031 34.7821C46.5317 34.7821 43.6889 31.9535 43.6889 28.4821C43.6889 24.9964 46.5317 22.1678 50.0031 22.1678C53.4745 22.1678 56.3032 24.9964 56.3032 28.4821Z" fill="#DDDDDD"/>
<path d="M82.2319 64.7253C79.6033 64.7253 77.4746 66.8683 77.4746 69.4969C77.4746 72.1109 79.6033 74.2536 82.2319 74.2536C84.8599 74.2536 87.0033 72.1109 87.0033 69.4969C87.0033 66.8683 84.8599 64.7253 82.2319 64.7253ZM82.2319 72.1109C80.7886 72.1109 79.6173 70.9396 79.6173 69.4969C79.6173 68.0536 80.7886 66.8683 82.2319 66.8683C83.6746 66.8683 84.8599 68.0536 84.8599 69.4969C84.8599 70.9396 83.6746 72.1109 82.2319 72.1109Z" fill="#1CAD6C"/>
<defs>
<linearGradient id="paint0_linear_7042_5417" x1="79.354" y1="58.3394" x2="79.354" y2="80.6534" gradientUnits="userSpaceOnUse">
<stop stop-color="#DDDDDD" stop-opacity="0"/>
<stop offset="1" stop-color="#EFEFEF"/>
</linearGradient>
<linearGradient id="paint1_linear_7042_5417" x1="24.0814" y1="8.78253" x2="24.0814" y2="13.1111" gradientUnits="userSpaceOnUse">
<stop stop-color="#DDDDDD" stop-opacity="0"/>
<stop offset="1" stop-color="#DDDDDD"/>
</linearGradient>
<linearGradient id="paint2_linear_7042_5417" x1="24.0817" y1="15.2682" x2="24.0817" y2="30.2397" gradientUnits="userSpaceOnUse">
<stop stop-color="#DDDDDD" stop-opacity="0"/>
<stop offset="1" stop-color="#DDDDDD"/>
</linearGradient>
</defs>
</svg>
