<svg width="101" height="100" viewBox="0 0 101 100" fill="none" xmlns="http://www.w3.org/2000/svg">
<path d="M81.5579 58.477V55.2771H82.8006C83.3859 55.2771 83.8719 54.8056 83.8719 54.2057C83.8719 53.6199 83.3859 53.1342 82.8006 53.1342H80.8719V45.7199H84.1146C87.1433 45.7199 88.5719 41.9628 86.2859 39.9627L48.1719 6.51993C46.9433 5.43419 45.0719 5.43419 43.829 6.51993L27.8147 20.577V16.3913H29.3148C30.2433 16.3913 31.0005 15.6342 31.0005 14.6913V9.67698C31.0005 8.73418 30.2433 7.97698 29.3148 7.97698H12.5291C11.6005 7.97698 10.8434 8.73418 10.8434 9.67698V14.6913C10.8434 15.6342 11.6005 16.3913 12.5291 16.3913H14.0433V32.677L5.74337 39.9628C3.47189 41.9628 4.88617 45.7199 7.91475 45.7199H11.1576V92.0626C10.0433 92.0913 8.90048 92.1053 7.78621 92.134C7.18615 92.1627 6.72908 92.6487 6.74329 93.234C6.75759 93.82 7.22908 94.2773 7.81475 94.2773H7.82901C8.51481 94.2626 78.1006 94.3053 78.1006 94.2913C88.0146 94.22 96.0433 86.134 96.0433 76.1913C96.0433 67.4487 89.8146 60.1484 81.5579 58.477ZM12.9862 14.2484V10.1198H28.8576V14.2484H12.9862ZM25.6719 16.3913V22.4627L16.1862 30.7913V16.3913H25.6719ZM7.91475 43.577C6.85759 43.577 6.35762 42.2627 7.15761 41.5627L45.2433 8.11991C45.6861 7.74845 46.329 7.74845 46.7576 8.11991L84.8719 41.5627C85.6719 42.2627 85.1719 43.577 84.1146 43.577H7.91475ZM46.5861 92.02H24.8433V59.8484C24.8433 58.9484 25.5719 58.2341 26.4719 58.2341H44.9719C45.8575 58.2341 46.5861 58.9484 46.5861 59.8484V92.02ZM48.729 92.02V59.8484C48.729 57.777 47.0433 56.0913 44.9719 56.0913H26.4719C24.4005 56.0913 22.7005 57.777 22.7005 59.8484V92.02H13.3005V45.7341H78.7293V53.1342H73.0579C72.4573 53.1342 71.9859 53.6199 71.9859 54.2057C71.9859 54.8056 72.4573 55.2771 73.0579 55.2771H74.3573V58.477C66.0719 60.1628 59.8719 67.6053 59.8719 76.1913V76.2053C59.8861 82.9626 63.7147 88.9626 69.3433 92.02H48.729ZM79.4146 55.2771V58.177C78.6433 58.1056 77.3433 58.1056 76.5006 58.177V55.2771H79.4146ZM77.9719 92.1487C69.0579 92.1487 62.0147 84.834 62.0147 76.1913C62.0147 67.4487 69.2433 60.1199 78.2433 60.2628C86.8146 60.4199 93.9006 67.42 93.9006 76.1913C93.9006 84.9913 86.7573 92.1487 77.9719 92.1487Z" fill="#1D2939"/>
<path d="M79.4146 55.2773V58.1773C78.6433 58.1059 77.3433 58.1059 76.5006 58.1773V55.2773H79.4146Z" fill="#DDDDDD"/>
<path d="M12.9861 10.1199H28.8575V14.2485H12.9861V10.1199Z" fill="url(#paint0_linear_7042_5429)"/>
<path d="M25.6719 16.3914V22.4628L16.1862 30.7914V16.3914H25.6719Z" fill="url(#paint1_linear_7042_5429)"/>
<path d="M44.9719 58.2344H26.4719C25.572 58.2344 24.8434 58.9486 24.8434 59.8486V92.0202H46.5862V59.8486C46.5862 58.9486 45.8577 58.2344 44.9719 58.2344ZM42.272 76.2489H40.8148C40.2149 76.2489 39.7434 75.7776 39.7434 75.1776C39.7434 74.5916 40.2149 74.1056 40.8148 74.1056H42.272C42.8577 74.1056 43.3434 74.5916 43.3434 75.1776C43.3434 75.7776 42.8577 76.2489 42.272 76.2489Z" fill="url(#paint2_linear_7042_5429)"/>
<path d="M46.029 20.8484C41.4433 20.8484 37.7148 24.577 37.7148 29.1628C37.7148 33.7342 41.4433 37.4485 46.029 37.4485C50.6005 37.4485 54.3148 33.7342 54.3148 29.1628C54.3148 24.577 50.6005 20.8484 46.029 20.8484ZM46.029 35.3056C42.6291 35.3056 39.8577 32.5485 39.8577 29.1628C39.8577 25.7628 42.6291 22.9913 46.029 22.9913C49.4148 22.9913 52.1719 25.7627 52.1719 29.1628C52.1719 32.5485 49.4148 35.3056 46.029 35.3056Z" fill="#1D2939"/>
<path d="M52.172 29.163C52.172 32.5487 49.4148 35.3059 46.029 35.3059C42.6291 35.3059 39.8577 32.5487 39.8577 29.163C39.8577 25.763 42.6291 22.9915 46.029 22.9915C49.4148 22.9915 52.172 25.763 52.172 29.163Z" fill="#DDDDDD"/>
<path d="M43.3433 75.1773C43.3433 75.7773 42.8576 76.2487 42.2719 76.2487H40.8147C40.2148 76.2487 39.7433 75.7773 39.7433 75.1773C39.7433 74.5913 40.2148 74.1053 40.8147 74.1053H42.2719C42.8576 74.1053 43.3433 74.5913 43.3433 75.1773Z" fill="#1D2939"/>
<path d="M77.9673 64.0503C77.3753 64.0503 76.8959 64.5302 76.8959 65.1218C76.8959 65.7133 77.3753 66.1932 77.9673 66.1932C83.4819 66.1932 87.9686 70.68 87.9686 76.1947C87.9686 81.7147 83.4819 86.2074 77.9673 86.2074C74.4473 86.2074 71.2486 84.41 69.4139 81.3994C69.1053 80.896 68.4473 80.7354 67.9406 81.0427C67.4353 81.3507 67.2753 82.0107 67.5833 82.516C69.8113 86.1694 73.6939 88.35 77.9673 88.35C84.6633 88.35 90.1113 82.8967 90.1113 76.1947C90.1113 69.498 84.6633 64.0503 77.9673 64.0503Z" fill="#1CAD6C"/>
<path d="M79.0293 74.4053V70.1053C79.0293 69.52 78.5573 69.034 77.958 69.034C77.372 69.034 76.886 69.52 76.886 70.1053V74.4053C75.372 74.8627 74.2573 76.2627 74.2573 77.934C74.2573 79.9773 75.9146 81.634 77.958 81.634C80.0006 81.634 81.672 79.9773 81.672 77.934C81.672 76.2627 80.558 74.8627 79.0293 74.4053ZM77.958 79.4913C77.1006 79.4913 76.4006 78.7913 76.4006 77.934C76.4006 77.0773 77.1006 76.3627 77.958 76.3627C78.8146 76.3627 79.5293 77.0773 79.5293 77.934C79.5293 78.7913 78.8146 79.4913 77.958 79.4913Z" fill="#1CAD6C"/>
<path d="M79.5293 77.934C79.5293 78.7913 78.8146 79.4913 77.9579 79.4913C77.1006 79.4913 76.4006 78.7913 76.4006 77.934C76.4006 77.0767 77.1006 76.3627 77.9579 76.3627C78.8146 76.3627 79.5293 77.0767 79.5293 77.934Z" fill="white"/>
<defs>
<linearGradient id="paint0_linear_7042_5429" x1="20.9219" y1="10.1199" x2="20.9219" y2="14.2485" gradientUnits="userSpaceOnUse">
<stop stop-color="#DDDDDD" stop-opacity="0"/>
<stop offset="1" stop-color="#DDDDDD"/>
</linearGradient>
<linearGradient id="paint1_linear_7042_5429" x1="20.929" y1="16.3914" x2="20.929" y2="30.7914" gradientUnits="userSpaceOnUse">
<stop stop-color="#DDDDDD" stop-opacity="0"/>
<stop offset="1" stop-color="#DDDDDD"/>
</linearGradient>
<linearGradient id="paint2_linear_7042_5429" x1="35.7148" y1="58.2344" x2="35.7148" y2="92.0202" gradientUnits="userSpaceOnUse">
<stop stop-color="#DDDDDD" stop-opacity="0"/>
<stop offset="1" stop-color="#DDDDDD"/>
</linearGradient>
</defs>
</svg>
