<svg width="32" height="32" viewBox="0 0 32 32" fill="none" xmlns="http://www.w3.org/2000/svg">
<path d="M9.12685 12.499C9.00254 12.499 8.88332 12.5483 8.79542 12.6362C8.70752 12.7241 8.65814 12.8434 8.65814 12.9677C8.65814 13.092 8.70752 13.2112 8.79542 13.2991C8.88332 13.387 9.00254 13.4364 9.12685 13.4364H22.8757C23 13.4364 23.1192 13.387 23.2071 13.2991C23.295 13.2112 23.3444 13.092 23.3444 12.9677C23.3444 12.8434 23.295 12.7241 23.2071 12.6362C23.1192 12.5483 23 12.499 22.8757 12.499H22.0945V6.40822L22.6538 6.70945C22.7253 6.74783 22.8054 6.76702 22.8865 6.76516C22.9675 6.76329 23.0467 6.74043 23.1163 6.69881C23.1859 6.65718 23.2435 6.59822 23.2835 6.52768C23.3234 6.45714 23.3444 6.37744 23.3444 6.29636V4.17154C23.3443 4.0869 23.3213 4.00387 23.2779 3.93125C23.2344 3.85863 23.1721 3.79913 23.0976 3.75907L16.2231 0.0562572C16.155 0.0193367 16.0788 0 16.0013 0C15.9238 0 15.8475 0.0193367 15.7794 0.0562572L8.905 3.75595C8.83044 3.79601 8.76813 3.8555 8.72467 3.92812C8.68121 4.00074 8.65822 4.08378 8.65814 4.16841V6.29636C8.65811 6.37744 8.6791 6.45714 8.71908 6.52768C8.75906 6.59822 8.81666 6.65718 8.88624 6.69881C8.95582 6.74043 9.03501 6.76329 9.11607 6.76516C9.19713 6.76702 9.27729 6.74783 9.34871 6.70945L9.90804 6.40822V12.499H9.12685ZM17.4662 12.499H14.5364V10.0617C14.5364 9.67316 14.6907 9.30056 14.9655 9.02584C15.2402 8.75112 15.6128 8.59679 16.0013 8.59679C16.3898 8.59679 16.7624 8.75112 17.0371 9.02584C17.3118 9.30056 17.4662 9.67316 17.4662 10.0617V12.499ZM9.59556 4.44839L16.0013 0.999928L22.407 4.44839V5.5108L16.2231 2.18733C16.155 2.15041 16.0788 2.13107 16.0013 2.13107C15.9238 2.13107 15.8475 2.15041 15.7794 2.18733L9.59556 5.51205V4.44839ZM10.8455 5.90389L16.0013 3.12912L21.1571 5.90389V12.499H18.4036V10.0617C18.4036 9.42454 18.1505 8.8135 17.7 8.36299C17.2494 7.91247 16.6384 7.65937 16.0013 7.65937C15.3641 7.65937 14.7531 7.91247 14.3026 8.36299C13.8521 8.8135 13.599 9.42454 13.599 10.0617V12.499H10.8455V5.90389Z" fill="#039654"/>
<path d="M31.9679 21.6392L28.5795 12.7781C28.5357 12.6636 28.4488 12.5709 28.3376 12.5196C28.2263 12.4684 28.0993 12.4626 27.9839 12.5037L25.0148 13.5624C24.8769 13.6116 24.7504 13.688 24.6427 13.7871C24.535 13.8862 24.4483 14.006 24.3878 14.1393C24.3274 14.2726 24.2943 14.4167 24.2907 14.563C24.2871 14.7093 24.3129 14.8549 24.3667 14.991L24.3973 15.0685L22.5756 15.6647L17.8548 14.7785C17.3856 14.6915 16.9035 14.7021 16.4386 14.8097C15.9736 14.9172 15.5359 15.1193 15.1525 15.4035L14.3026 16.0347C13.6473 15.6399 12.8965 15.432 12.1315 15.4335H8.54679L7.70436 14.9854C7.75043 14.7485 7.71657 14.503 7.60811 14.2874C7.49965 14.0719 7.32271 13.8984 7.10504 13.7942L4.45589 12.5256C4.39876 12.4982 4.33667 12.4826 4.27338 12.4799C4.21008 12.4772 4.14689 12.4874 4.08765 12.5099C4.0284 12.5323 3.97432 12.5665 3.92869 12.6105C3.88306 12.6544 3.84683 12.7072 3.82219 12.7656L0.0393822 21.6854C-0.00788811 21.7963 -0.0105548 21.9212 0.0319375 22.034C0.0744298 22.1468 0.158805 22.2389 0.267488 22.291L2.90977 23.5615C3.14494 23.6752 3.41312 23.7006 3.66546 23.6332C3.91781 23.5657 4.13754 23.4099 4.28465 23.1941L6.60321 24.7445C6.40571 24.9807 6.27968 25.2682 6.2399 25.5735C6.20012 25.8787 6.24824 26.189 6.37861 26.4678C6.50898 26.7467 6.7162 26.9826 6.97594 27.1478C7.23567 27.313 7.53715 27.4007 7.84498 27.4006C7.8806 27.4006 7.9156 27.4006 7.95059 27.3968C7.97079 27.8112 8.14947 28.202 8.44969 28.4884C8.7499 28.7748 9.14869 28.9348 9.56358 28.9354C9.59858 28.9354 9.6342 28.9354 9.6692 28.9317C9.68944 29.3465 9.86862 29.7375 10.1696 30.0237C10.4705 30.3098 10.87 30.4691 11.2853 30.4684C11.3203 30.4684 11.3553 30.4672 11.3903 30.4647C11.4064 30.7774 11.5127 31.0788 11.6966 31.3323C11.8804 31.5858 12.1338 31.7805 12.426 31.893C12.7183 32.0054 13.0369 32.0307 13.3432 31.9657C13.6495 31.9008 13.9304 31.7484 14.1519 31.5271L14.8306 30.849L15.7831 31.5658C16.1239 31.8189 16.5441 31.9414 16.9675 31.9112C17.3909 31.8811 17.7895 31.7002 18.091 31.4015L18.1779 31.3152C18.4647 31.0304 18.6448 30.6554 18.6878 30.2535C19.0012 30.3617 19.3387 30.3798 19.6619 30.3057C19.9851 30.2316 20.2809 30.0682 20.5158 29.8341L20.6345 29.7154C20.9293 29.4213 21.1104 29.0323 21.1457 28.6173C21.4586 28.7257 21.7957 28.7436 22.1183 28.669C22.4408 28.5944 22.7358 28.4302 22.9693 28.1955L23.0799 28.0843C23.3643 27.7995 23.543 27.4263 23.5868 27.0262C23.8884 27.1098 24.2068 27.1121 24.5097 27.0331C24.8126 26.9541 25.0892 26.7965 25.3116 26.5763L25.3741 26.5138C25.609 26.2788 25.7728 25.9823 25.8468 25.6584C25.9207 25.3345 25.9018 24.9963 25.7922 24.6827L27.7964 23.2903C27.9511 23.4159 28.1374 23.4965 28.3348 23.5232C28.5323 23.5498 28.7333 23.5216 28.9157 23.4415L31.7161 22.2341C31.8265 22.1863 31.9142 22.0979 31.9611 21.9871C32.008 21.8763 32.0105 21.7517 31.9679 21.6392ZM15.7112 16.1534C15.9908 15.9464 16.3101 15.7993 16.6492 15.7213C16.9882 15.6432 17.3397 15.6359 17.6816 15.6997L22.5206 16.6084C22.5981 16.6231 22.6781 16.6179 22.7531 16.5934L24.7423 15.9422L27.324 22.4747L25.2616 23.9071L25.1579 23.8315L21.0907 20.9024C21.0274 20.8566 20.9536 20.8273 20.8761 20.8174C20.7986 20.8075 20.7198 20.8171 20.647 20.8455C19.434 21.3161 18.4228 21.3536 17.6417 20.9561C16.603 20.4274 16.2874 19.2763 16.2849 19.2688C16.2666 19.1973 16.2316 19.1312 16.1829 19.0758C16.1342 19.0204 16.0731 18.9772 16.0046 18.9499C15.9361 18.9226 15.8621 18.9118 15.7886 18.9184C15.7152 18.9251 15.6443 18.949 15.5818 18.9882L12.7871 20.738C12.5372 20.8935 12.2462 20.9699 11.9523 20.9571C11.6583 20.9442 11.375 20.8428 11.1397 20.6661C11.0529 20.6005 10.9826 20.5156 10.9344 20.418C10.8862 20.3205 10.8613 20.2131 10.8618 20.1043C10.8623 19.9955 10.8881 19.8883 10.9372 19.7912C10.9863 19.6942 11.0574 19.6098 11.1447 19.545L15.7112 16.1534ZM3.52471 22.6372C3.51681 22.6563 3.50516 22.6736 3.49045 22.6881C3.47575 22.7026 3.45828 22.714 3.4391 22.7216C3.4191 22.7297 3.39761 22.7334 3.37606 22.7326C3.35451 22.7317 3.33339 22.7263 3.31411 22.7166L1.07679 21.6398L4.49338 13.578L6.70007 14.6348C6.73561 14.6515 6.76327 14.6814 6.77725 14.7181C6.79124 14.7548 6.79045 14.7955 6.77507 14.8316L3.52471 22.6372ZM7.36127 26.2619C7.23357 26.1341 7.16185 25.9608 7.16185 25.7801C7.16185 25.5994 7.23357 25.4261 7.36127 25.2983L8.50117 24.1571C8.56449 24.0938 8.63965 24.0436 8.72238 24.0093C8.80511 23.975 8.89377 23.9574 8.98332 23.9574C9.07286 23.9574 9.16153 23.975 9.24425 24.0093C9.32698 24.0436 9.40215 24.0938 9.46546 24.1571C9.52878 24.2204 9.57901 24.2956 9.61327 24.3783C9.64754 24.461 9.66518 24.5497 9.66518 24.6392C9.66518 24.7288 9.64754 24.8175 9.61327 24.9002C9.57901 24.9829 9.52878 25.0581 9.46546 25.1214L8.32244 26.2644C8.19451 26.3912 8.02167 26.4624 7.84154 26.4624C7.66141 26.4624 7.48857 26.3912 7.36064 26.2644L7.36127 26.2619ZM9.08362 27.7968C9.0203 27.7335 8.97007 27.6583 8.9358 27.5756C8.90153 27.4929 8.88389 27.4042 8.88389 27.3146C8.88389 27.2251 8.90153 27.1364 8.9358 27.0537C8.97007 26.971 9.0203 26.8958 9.08362 26.8325L10.1335 25.7826C10.1648 25.7513 10.196 25.7201 10.2229 25.6851L10.2285 25.6907C10.3582 25.5725 10.5286 25.509 10.704 25.5133C10.8794 25.5176 11.0464 25.5894 11.1702 25.7139C11.294 25.8383 11.3649 26.0056 11.3683 26.1811C11.3717 26.3565 11.3073 26.5265 11.1884 26.6556L10.1398 27.7043C10.1079 27.7362 10.0773 27.7668 10.0498 27.803L10.0448 27.798C9.91711 27.9252 9.74433 27.9967 9.56415 27.9969C9.38397 27.9971 9.21101 27.9261 9.083 27.7993L9.08362 27.7968ZM10.8054 29.3298C10.6778 29.2018 10.6061 29.0284 10.6061 28.8476C10.6061 28.6669 10.6778 28.4935 10.8054 28.3655L11.9484 27.2225C12.0768 27.0947 12.2508 27.0231 12.432 27.0236C12.6132 27.0241 12.7868 27.0965 12.9145 27.225C13.0423 27.3534 13.1139 27.5274 13.1134 27.7086C13.1129 27.8898 13.0405 28.0633 12.912 28.1911L11.7684 29.3342C11.6402 29.4615 11.4668 29.5327 11.2862 29.5324C11.1055 29.532 10.9324 29.4601 10.8047 29.3323L10.8054 29.3298ZM13.4926 30.8647C13.4293 30.928 13.3541 30.9782 13.2714 31.0125C13.1887 31.0467 13.1 31.0644 13.0105 31.0644C12.9209 31.0644 12.8323 31.0467 12.7495 31.0125C12.6668 30.9782 12.5916 30.928 12.5283 30.8647C12.465 30.8013 12.4148 30.7262 12.3805 30.6434C12.3463 30.5607 12.3286 30.4721 12.3286 30.3825C12.3286 30.293 12.3463 30.2043 12.3805 30.1216C12.4148 30.0388 12.465 29.9637 12.5283 29.9004L13.5776 28.8505C13.6095 28.8192 13.6401 28.788 13.6676 28.753L13.6732 28.7586C13.7365 28.6953 13.8116 28.6451 13.8943 28.6109C13.977 28.5766 14.0656 28.559 14.1551 28.559C14.2446 28.559 14.3332 28.5766 14.4158 28.6109C14.4985 28.6451 14.5736 28.6953 14.6369 28.7586C14.7002 28.8219 14.7504 28.897 14.7846 28.9797C14.8189 29.0623 14.8365 29.1509 14.8365 29.2404C14.8365 29.3299 14.8189 29.4185 14.7846 29.5012C14.7504 29.5839 14.7002 29.659 14.6369 29.7223L13.4926 30.8647ZM24.7123 25.847L24.6498 25.9094C24.5019 26.0563 24.3044 26.1424 24.0961 26.1507C23.8879 26.1591 23.684 26.089 23.5249 25.9544L22.9756 25.487L22.9693 25.4826L22.9656 25.4789L22 24.7058C21.9032 24.6277 21.7794 24.5913 21.6557 24.6046C21.5321 24.6178 21.4188 24.6796 21.3407 24.7764C21.2626 24.8732 21.2262 24.9971 21.2395 25.1207C21.2527 25.2444 21.3145 25.3577 21.4113 25.4357L22.3675 26.2069C22.4543 26.2812 22.5249 26.3726 22.5747 26.4754C22.6245 26.5782 22.6525 26.6903 22.6569 26.8044C22.6613 26.9186 22.642 27.0324 22.6003 27.1388C22.5585 27.2452 22.4952 27.3417 22.4144 27.4224L22.3038 27.5331C22.1653 27.6724 21.9817 27.7578 21.786 27.774C21.5902 27.7901 21.3951 27.736 21.2357 27.6212L20.0483 26.7731C19.9984 26.7351 19.9414 26.7076 19.8807 26.692C19.8199 26.6765 19.7567 26.6733 19.6947 26.6826C19.6327 26.6919 19.5732 26.7136 19.5197 26.7463C19.4662 26.7791 19.4199 26.8222 19.3834 26.8732C19.3469 26.9242 19.3209 26.9819 19.3072 27.0431C19.2934 27.1043 19.292 27.1676 19.3032 27.2293C19.3143 27.291 19.3377 27.3498 19.372 27.4023C19.4063 27.4548 19.4507 27.4999 19.5027 27.5349L19.8633 27.793C19.9612 27.863 20.0426 27.9535 20.1019 28.0581C20.1613 28.1628 20.1971 28.2791 20.207 28.399C20.2169 28.5188 20.2005 28.6394 20.1591 28.7524C20.1177 28.8653 20.0521 28.9679 19.9671 29.0529L19.8477 29.1717C19.6986 29.3205 19.4985 29.407 19.2879 29.4136C19.0774 29.4202 18.8722 29.3464 18.7141 29.2073L17.7848 28.388C17.6949 28.3088 17.5781 28.267 17.4583 28.2712C17.3386 28.2754 17.225 28.3254 17.1409 28.4107C17.0569 28.4961 17.0087 28.6104 17.0062 28.7302C17.0038 28.85 17.0474 28.9661 17.1279 29.0548L17.5398 29.5079C17.6832 29.6653 17.7603 29.872 17.7552 30.0849C17.7501 30.2978 17.6631 30.5005 17.5123 30.6509L17.426 30.7372C17.285 30.8771 17.0985 30.9619 16.9003 30.9764C16.7022 30.9908 16.5054 30.9339 16.3455 30.8159L15.4806 30.1678C15.6549 29.9179 15.7551 29.6238 15.7696 29.3194C15.7841 29.015 15.7123 28.7127 15.5625 28.4473C15.4126 28.1819 15.1909 27.9643 14.9228 27.8195C14.6546 27.6746 14.351 27.6085 14.047 27.6287C14.0365 27.4141 13.9834 27.2038 13.8907 27.01C13.7981 26.8162 13.6677 26.6428 13.5073 26.4999C13.3469 26.357 13.1597 26.2475 12.9565 26.1778C12.7533 26.1081 12.5383 26.0795 12.324 26.0938C12.3136 25.8794 12.2605 25.6692 12.168 25.4756C12.0754 25.2819 11.9452 25.1087 11.7849 24.9659C11.6246 24.8232 11.4374 24.7139 11.2343 24.6443C11.0313 24.5747 10.8164 24.5464 10.6022 24.5608C10.5872 24.2477 10.4815 23.9457 10.298 23.6915C10.1145 23.4373 9.86113 23.2419 9.56866 23.1291C9.2762 23.0162 8.95725 22.9907 8.65058 23.0557C8.34392 23.1208 8.06274 23.2735 7.84123 23.4953L7.27065 24.0665L4.66962 22.3248L7.36252 15.8615L8.20994 16.3128C8.27761 16.349 8.35318 16.3679 8.42993 16.3678H12.1315C12.5917 16.367 13.0469 16.4637 13.467 16.6515L10.5847 18.79C10.3805 18.9417 10.2144 19.1388 10.0996 19.3658C9.98475 19.5928 9.92433 19.8434 9.92312 20.0977C9.92191 20.3521 9.97993 20.6033 10.0926 20.8313C10.2053 21.0594 10.3695 21.2581 10.5722 21.4117C10.9596 21.7025 11.4258 21.8694 11.9097 21.8906C12.3936 21.9118 12.8726 21.7863 13.2839 21.5304L15.5962 20.0793C15.8462 20.5961 16.3293 21.3361 17.2004 21.7835C18.1754 22.2835 19.3659 22.2929 20.7414 21.8073L24.6067 24.5908C24.704 24.6611 24.785 24.7517 24.8439 24.8563C24.9028 24.9609 24.9383 25.0771 24.948 25.1968C24.9576 25.3164 24.9411 25.4368 24.8997 25.5495C24.8582 25.6622 24.7928 25.7645 24.7079 25.8495L24.7123 25.847ZM28.5464 22.581C28.5275 22.5891 28.5072 22.5933 28.4867 22.5933C28.4662 22.5933 28.4458 22.5891 28.427 22.581C28.4081 22.573 28.391 22.5615 28.3766 22.5469C28.3622 22.5323 28.3509 22.515 28.3433 22.496L25.2385 14.646C25.2303 14.6272 25.2261 14.6069 25.2261 14.5863C25.2261 14.5658 25.2303 14.5455 25.2385 14.5267C25.2471 14.5079 25.2593 14.4911 25.2744 14.4772C25.2895 14.4632 25.3073 14.4524 25.3266 14.4454L27.8645 13.5405L30.9268 21.5542L28.5464 22.581Z" fill="#039654"/>
</svg>
